<svg width="74" height="224" viewBox="0 0 74 224" fill="none" xmlns="http://www.w3.org/2000/svg">
<path d="M71.4305 223.916C73.9698 224.503 74 221.404 74 218.807C74.0302 170.188 74 59.3816 74 19.5985C74.1511 12.6469 71.5212 7.16104 66.7451 4.10402C51.5703 -7.07713 25.6038 6.19787 16.7165 25.7125C11.2451 37.5637 15.5376 48.5355 15.9306 60.973C15.9306 64.1137 15.598 67.2964 15.0237 70.3115C13.4216 79.2732 9.46159 87.2717 6.31781 95.4796C3.71813 102.264 1.72303 109.257 0.665024 116.795C-1.60213 134.551 1.81372 153.94 9.12908 168.848C15.0237 180.239 24.3039 186.771 32.7377 193.849C39.9322 200.34 45.7663 208.087 53.3235 213.95C58.7042 218.012 65.6266 222.199 71.3096 223.916H71.3701H71.4305Z" fill="#23B6B0"/>
</svg>
