<svg width="33" height="129" viewBox="0 0 33 129" fill="none" xmlns="http://www.w3.org/2000/svg">
<path d="M-3.58329 0.691023C-10.2242 1.44157 -8.74845 8.68599 -9 14.6577C-9 16.8278 -9 18.9489 -9 21.1679C-9 38.2674 -9 59.5438 -9 78.3891C-9 91.181 -9 103.63 -9 116.259C-8.81553 123.03 -9.95589 128.366 -3.28143 128.953C4.83525 128.953 17.4798 121.17 23.8692 116.112C34.9374 106.861 35.407 98.0012 28.1623 86.1719C22.1251 76.4311 17.9997 66.3803 20.6158 54.861C23.0642 43.6681 32.053 33.0625 28.0952 21.2006C26.0661 14.8862 20.8171 10.3013 15.0482 6.87489C9.69855 3.7748 1.78311 0.364698 -3.53298 0.674707H-3.58329V0.691023Z" fill="#23B6B0"/>
</svg>
