<svg width="27" height="179" viewBox="0 0 27 179" fill="none" xmlns="http://www.w3.org/2000/svg">
<g clip-path="url(#clip0_132_86)">
<path d="M35.7153 178.933C36.9849 179.402 37 176.925 37 174.85C37.0151 135.999 37 47.4523 37 15.6613C37.0756 10.1062 35.7606 5.72242 33.3725 3.27953C25.7851 -5.65541 12.8019 4.95274 8.35825 20.5471C5.62255 30.0174 7.76879 38.785 7.96528 48.7239C7.96528 51.2337 7.79902 53.777 7.51184 56.1864C6.71078 63.3478 4.7308 69.7394 3.15891 76.2984C1.85907 81.7196 0.861515 87.3081 0.332512 93.3317C-0.801064 107.521 0.90686 123.014 4.56454 134.928C7.51184 144.03 12.152 149.25 16.3689 154.906C19.9661 160.093 22.8832 166.284 26.6618 170.969C29.3521 174.215 32.8133 177.561 35.6548 178.933H35.685H35.7153Z" fill="#23B6B0"/>
</g>
<defs>
<clipPath id="clip0_132_86">
<rect width="37" height="179" fill="white" transform="matrix(-1 0 0 1 37 0)"/>
</clipPath>
</defs>
</svg>
