<svg width="257" height="336" viewBox="0 0 257 336" fill="none" xmlns="http://www.w3.org/2000/svg">
<g clip-path="url(#clip0_328_2)">
<path d="M238.34 186.05C226.37 170.54 209.89 159.73 189.06 153.79H189.59C187.64 153.35 186.75 152.64 186.93 151.57C187.2 150.51 188.08 149.53 189.59 148.73C203.77 142.35 214.85 133.04 222.74 120.9C230.54 108.85 234.53 94.66 234.53 78.53C234.53 55.13 226.38 36.25 209.98 21.98C193.67 7.8 171.95 0.44 144.74 0H41.39V48.66H52.11C68.06 48.66 80.92 35.72 80.92 19.85V17.19C80.92 11.25 83.67 8.33 89.25 8.33H143.58C158.91 8.33 171.23 14.71 180.45 27.47C189.67 40.23 194.37 57.25 194.37 78.52C194.37 99.79 189.67 116.9 180.45 129.84C171.23 142.87 158.91 149.34 143.58 149.34H89.25C83.67 149.34 80.92 146.33 80.92 140.39V86.23H78.35C57.96 86.23 41.39 102.72 41.39 123.19V143.31C45.56 147.92 50.52 152 56.01 155.54C62.3 159.62 70.55 164.4 80.92 170.08V166.53C80.92 160.59 83.67 157.58 89.25 157.58H154.22C173.45 157.58 188.61 165.03 199.69 179.92C210.68 194.81 216.18 215.29 216.18 241.26C216.18 267.23 210.68 288.41 199.69 303.75C188.61 319.08 173.45 326.71 154.22 326.71H89.25C84.11 326.71 81.36 324.23 81.01 319.09C80.92 318.74 80.92 318.29 80.92 317.85V205.64C76.93 203.34 72.77 201.03 68.42 198.64C57.96 192.79 48.92 187.56 41.39 182.77V335.05H157.15C187.02 334.16 211.04 325.3 229.21 308.28C247.29 291.26 256.33 269.1 256.33 241.89C256.33 220.17 250.39 201.56 238.34 186.05Z" fill="#333333"/>
<path d="M32.17 176.65C34.92 178.6 38.02 180.64 41.39 182.77V143.33C39.35 141.29 37.58 139.16 35.89 136.95C30.39 129.68 27.65 121.35 27.65 112.04C27.65 98.48 32.79 87.58 43.07 79.33C53.35 71.09 65.14 67.01 78.26 67.01C105.47 67.01 126.74 84.12 142.17 118.33L157.77 99.45C141.55 73.92 114.96 61.16 77.91 61.16C55.4 61.16 36.78 66.92 22.07 78.35C7.35999 89.79 -9.76585e-06 105.21 -9.76585e-06 124.62C-9.76585e-06 135.88 3.09999 145.8 9.30999 154.31C15.51 162.91 23.14 170.35 32.18 176.65H32.17ZM152.01 220.44C145.45 211.04 137.3 203.24 127.72 196.95C118.06 190.66 105.47 183.3 89.78 174.88C86.68 173.2 83.66 171.6 80.92 170.09V205.63C95.72 214.23 107.42 222.38 115.93 229.83C126.83 239.4 132.24 251.1 132.24 264.93C132.24 278.76 127.54 290.63 118.06 299.5C108.58 308.36 96.43 312.8 81.54 312.8H80.92C67.8 312.62 55.22 308.19 43.52 299.5C42.81 298.97 42.1 298.44 41.39 297.82C30.49 289.31 22.16 279.38 16.48 267.86L-0.0100098 281.42C6.89999 293.03 17.45 302.16 31.72 308.99C34.82 310.5 38.01 311.74 41.38 312.89C53.17 317.06 66.2 319.09 80.29 319.09H81C96.42 319 110.16 316.25 122.3 310.67C134.71 305 144.37 297.2 151.37 287.18C158.37 277.16 161.92 265.91 161.92 253.32C161.92 240.73 158.55 229.74 151.99 220.44H152.01Z" fill="url(#paint0_linear_328_2)"/>
<path d="M80.92 170.09V205.63C76.93 203.33 72.77 201.02 68.42 198.63C57.96 192.78 48.92 187.55 41.39 182.76V143.32C45.56 147.93 50.52 152.01 56.01 155.55C62.3 159.63 70.55 164.41 80.92 170.09Z" fill="#333333"/>
</g>
<defs>
<linearGradient id="paint0_linear_328_2" x1="-9.76651e-06" y1="190.12" x2="161.94" y2="190.12" gradientUnits="userSpaceOnUse">
<stop offset="0.17" stop-color="#54C0A6"/>
<stop offset="0.37" stop-color="#4CBDA9"/>
<stop offset="0.68" stop-color="#37B8B1"/>
<stop offset="0.69" stop-color="#37B8B2"/>
<stop offset="0.74" stop-color="#36B3AE"/>
<stop offset="0.79" stop-color="#36A7A2"/>
<stop offset="0.85" stop-color="#35938E"/>
<stop offset="0.9" stop-color="#357673"/>
<stop offset="0.96" stop-color="#335150"/>
<stop offset="1" stop-color="#333333"/>
</linearGradient>
<clipPath id="clip0_328_2">
<rect width="256.33" height="335.04" fill="white"/>
</clipPath>
</defs>
</svg>
