<svg width="68" height="224" viewBox="0 0 68 224" fill="none" xmlns="http://www.w3.org/2000/svg">
<path d="M2.37212 223.928C0.040101 224.514 0.0123387 221.415 0.0123387 218.818C-0.0154234 170.192 0.0123387 59.3709 0.0123387 19.5824C-0.126472 12.6299 2.28884 7.14327 6.67526 4.08584C20.6119 -7.09683 44.4596 6.17997 52.6217 25.6973C57.6466 37.5501 53.7044 48.5233 53.3435 60.9624C53.3435 64.1036 53.6488 67.2867 54.1763 70.3023C55.6477 79.2652 59.2846 87.2647 62.1718 95.4737C64.5594 102.259 66.3917 109.253 67.3634 116.792C69.4455 134.55 66.3084 153.942 59.59 168.852C54.1763 180.244 45.6533 186.778 37.9077 193.856C31.3003 200.348 25.9422 208.096 19.0017 213.96C14.06 218.022 7.70246 222.211 2.48317 223.928H2.42765H2.37212Z" fill="#23B6B0"/>
</svg>
