<svg width="74" height="224" viewBox="0 0 74 224" fill="none" xmlns="http://www.w3.org/2000/svg">
<g clip-path="url(#clip0_277_523)">
<path d="M71.4305 223.916C73.9698 224.503 74 221.404 74 218.807C74.0302 170.188 74 59.3817 74 19.5986C74.1511 12.647 71.5212 7.1611 66.7451 4.10408C51.5703 -7.07707 25.6038 6.19793 16.7165 25.7126C11.2451 37.5638 15.5376 48.5356 15.9306 60.973C15.9306 64.1138 15.598 67.2965 15.0237 70.3116C13.4216 79.2733 9.46159 87.2718 6.31781 95.4797C3.71813 102.264 1.72303 109.257 0.665024 116.795C-1.60213 134.551 1.81372 153.94 9.12908 168.848C15.0237 180.239 24.3039 186.771 32.7377 193.849C39.9322 200.34 45.7663 208.087 53.3235 213.95C58.7042 218.012 65.6266 222.199 71.3096 223.916H71.3701H71.4305Z" fill="#23B6B0"/>
</g>
<defs>
<clipPath id="clip0_277_523">
<rect width="74" height="224" fill="white" transform="matrix(-1 0 0 1 74 0)"/>
</clipPath>
</defs>
</svg>
